<svg xmlns="http://www.w3.org/2000/svg" xmlns:xlink="http://www.w3.org/1999/xlink" width="500" zoomAndPan="magnify" viewBox="0 0 375 374.999991" height="500" preserveAspectRatio="xMidYMid meet" version="1.0"><defs><g/><clipPath id="91fdc586c0"><path d="M 176 221.308594 L 199.386719 221.308594 L 199.386719 228.058594 L 176 228.058594 Z M 176 221.308594 " clip-rule="nonzero"/></clipPath><clipPath id="360a881e95"><path d="M 186 78.191406 L 190 78.191406 L 190 91 L 186 91 Z M 186 78.191406 " clip-rule="nonzero"/></clipPath><clipPath id="01c83b191e"><path d="M 120.1875 144 L 133 144 L 133 148 L 120.1875 148 Z M 120.1875 144 " clip-rule="nonzero"/></clipPath><clipPath id="6eb06f795c"><path d="M 243 144 L 255.1875 144 L 255.1875 148 L 243 148 Z M 243 144 " clip-rule="nonzero"/></clipPath></defs><rect x="-37.5" width="450" fill="#ffffff" y="-37.499999" height="449.999989" fill-opacity="1"/><rect x="-37.5" width="450" fill="#ffffff" y="-37.499999" height="449.999989" fill-opacity="1"/><rect x="-37.5" width="450" fill="#ffffff" y="-37.499999" height="449.999989" fill-opacity="1"/><path fill="#000000" d="M 176.367188 177.410156 C 176.238281 177.410156 176.109375 177.40625 175.984375 177.402344 C 175.894531 177.398438 175.804688 177.390625 175.71875 177.382812 C 175.683594 177.378906 175.648438 177.378906 175.617188 177.375 C 171.941406 177.015625 168.9375 174.046875 168.621094 170.320312 C 168.621094 170.316406 168.621094 170.316406 168.621094 170.3125 C 168.601562 170.09375 168.589844 169.878906 168.589844 169.65625 C 168.589844 165.382812 172.078125 161.902344 176.367188 161.902344 C 177.132812 161.902344 177.753906 161.285156 177.753906 160.519531 C 177.753906 159.757812 177.132812 159.140625 176.367188 159.140625 C 170.722656 159.140625 166.097656 163.582031 165.832031 169.148438 C 161.585938 169.097656 158.144531 165.640625 158.144531 161.394531 C 158.144531 159.804688 158.625 158.277344 159.535156 156.972656 C 159.761719 156.648438 159.839844 156.242188 159.746094 155.859375 C 159.652344 155.472656 159.398438 155.148438 159.046875 154.960938 C 156.492188 153.613281 154.902344 150.984375 154.902344 148.105469 C 154.902344 146.339844 155.496094 144.660156 156.585938 143.292969 C 156.609375 143.261719 156.628906 143.234375 156.652344 143.203125 C 156.667969 143.1875 156.683594 143.171875 156.699219 143.15625 C 156.847656 142.972656 157.003906 142.800781 157.171875 142.632812 C 157.175781 142.628906 157.175781 142.628906 157.179688 142.625 C 158.648438 141.160156 160.601562 140.351562 162.679688 140.351562 C 164.171875 140.351562 165.621094 140.777344 166.875 141.578125 C 169.117188 143.011719 170.453125 145.453125 170.453125 148.105469 C 170.453125 148.871094 171.074219 149.492188 171.839844 149.492188 C 172.605469 149.492188 173.226562 148.871094 173.226562 148.105469 C 173.226562 144.503906 171.410156 141.195312 168.371094 139.25 C 166.667969 138.160156 164.703125 137.585938 162.679688 137.585938 C 160.394531 137.585938 158.21875 138.308594 156.417969 139.640625 C 155.929688 138.78125 155.667969 137.8125 155.667969 136.816406 C 155.667969 134.128906 157.578125 131.765625 160.207031 131.195312 C 160.574219 131.113281 160.890625 130.890625 161.089844 130.574219 C 161.289062 130.257812 161.347656 129.871094 161.257812 129.507812 C 161.105469 128.894531 161.027344 128.265625 161.027344 127.632812 C 161.027344 123.355469 164.515625 119.878906 168.800781 119.878906 C 169.15625 119.878906 169.507812 119.902344 169.859375 119.953125 C 170.234375 124.308594 173.90625 127.734375 178.371094 127.734375 C 179.136719 127.734375 179.757812 127.117188 179.757812 126.351562 C 179.757812 125.589844 179.136719 124.96875 178.371094 124.96875 C 175.1875 124.96875 172.597656 122.386719 172.597656 119.214844 C 172.597656 119.171875 172.597656 119.125 172.59375 119.085938 C 172.605469 119.023438 172.613281 118.960938 172.617188 118.898438 C 172.78125 115.847656 175.308594 113.457031 178.371094 113.457031 C 181.550781 113.457031 184.140625 116.042969 184.140625 119.214844 L 184.140625 169.65625 C 184.140625 173.933594 180.652344 177.410156 176.367188 177.410156 Z M 214.285156 130.574219 C 214.480469 130.890625 214.800781 131.113281 215.167969 131.195312 C 217.796875 131.765625 219.707031 134.128906 219.707031 136.816406 C 219.707031 138.261719 219.15625 139.644531 218.164062 140.714844 C 217.660156 141.261719 217.675781 142.105469 218.203125 142.632812 C 219.664062 144.09375 220.46875 146.039062 220.46875 148.105469 C 220.46875 150.984375 218.882812 153.613281 216.328125 154.960938 C 215.976562 155.148438 215.722656 155.472656 215.628906 155.859375 C 215.535156 156.242188 215.613281 156.648438 215.839844 156.972656 C 216.75 158.277344 217.230469 159.804688 217.230469 161.394531 C 217.230469 165.671875 213.742188 169.148438 209.453125 169.148438 C 209.085938 169.148438 208.707031 169.121094 208.332031 169.070312 C 207.953125 169.015625 207.570312 169.117188 207.273438 169.355469 C 206.972656 169.589844 206.785156 169.941406 206.753906 170.320312 C 206.414062 174.296875 203.011719 177.410156 199.007812 177.410156 C 194.722656 177.410156 191.230469 173.933594 191.230469 169.65625 L 191.230469 119.214844 C 191.230469 116.042969 193.820312 113.457031 197.003906 113.457031 C 200.066406 113.457031 202.59375 115.847656 202.757812 118.898438 C 202.78125 119.316406 202.992188 119.699219 203.332031 119.945312 C 203.671875 120.191406 204.105469 120.265625 204.507812 120.15625 C 205.183594 119.972656 205.878906 119.878906 206.570312 119.878906 C 210.859375 119.878906 214.347656 123.355469 214.347656 127.632812 C 214.347656 128.265625 214.269531 128.894531 214.117188 129.507812 C 214.027344 129.871094 214.085938 130.257812 214.285156 130.574219 Z M 209.265625 184.558594 C 209.175781 184.609375 209.097656 184.667969 209.023438 184.730469 C 203.34375 188.351562 202.042969 193.789062 200.894531 198.59375 C 200.097656 201.921875 199.339844 205.078125 197.3125 207.617188 L 193.0625 207.617188 L 193.0625 201.6875 C 193.0625 200.085938 192.355469 198.648438 191.230469 197.664062 L 191.230469 176.757812 C 193.164062 178.859375 195.933594 180.175781 199.007812 180.175781 C 203.976562 180.175781 208.261719 176.644531 209.308594 171.914062 C 209.359375 171.914062 209.40625 171.914062 209.453125 171.914062 C 215.269531 171.914062 220.003906 167.195312 220.003906 161.394531 C 220.003906 159.726562 219.613281 158.105469 218.863281 156.640625 C 221.597656 154.679688 223.246094 151.523438 223.246094 148.105469 C 223.246094 145.71875 222.453125 143.453125 220.992188 141.605469 C 221.957031 140.199219 222.480469 138.535156 222.480469 136.816406 C 222.480469 133.292969 220.261719 130.144531 217.046875 128.882812 C 217.09375 128.46875 217.121094 128.050781 217.121094 127.632812 C 217.121094 121.832031 212.386719 117.113281 206.570312 117.113281 C 206.148438 117.113281 205.722656 117.140625 205.296875 117.191406 C 204.386719 113.441406 201.003906 110.691406 197.003906 110.691406 C 192.292969 110.691406 188.460938 114.515625 188.460938 119.214844 L 188.460938 196.386719 C 188.207031 196.347656 187.949219 196.328125 187.6875 196.328125 C 187.425781 196.328125 187.167969 196.347656 186.914062 196.386719 L 186.914062 119.214844 C 186.914062 114.515625 183.082031 110.691406 178.371094 110.691406 C 174.371094 110.691406 170.988281 113.441406 170.078125 117.191406 C 169.652344 117.140625 169.226562 117.113281 168.800781 117.113281 C 162.984375 117.113281 158.253906 121.832031 158.253906 127.632812 C 158.253906 128.050781 158.277344 128.46875 158.328125 128.882812 C 155.113281 130.144531 152.894531 133.292969 152.894531 136.816406 C 152.894531 138.535156 153.417969 140.199219 154.382812 141.605469 C 154.335938 141.667969 154.292969 141.730469 154.246094 141.789062 C 154.21875 141.824219 154.1875 141.863281 154.160156 141.902344 C 154.070312 142.027344 153.976562 142.152344 153.890625 142.285156 C 153.890625 142.285156 153.886719 142.289062 153.886719 142.292969 C 153.699219 142.570312 153.53125 142.855469 153.371094 143.148438 C 153.359375 143.171875 153.347656 143.199219 153.332031 143.222656 C 153.269531 143.339844 153.210938 143.460938 153.152344 143.582031 C 153.136719 143.617188 153.121094 143.648438 153.105469 143.679688 C 153.050781 143.796875 153 143.917969 152.949219 144.035156 C 152.933594 144.066406 152.921875 144.101562 152.910156 144.132812 C 152.855469 144.261719 152.804688 144.390625 152.757812 144.523438 C 152.75 144.542969 152.742188 144.5625 152.734375 144.585938 C 152.625 144.898438 152.527344 145.214844 152.445312 145.535156 C 152.441406 145.554688 152.4375 145.574219 152.433594 145.59375 C 152.398438 145.730469 152.371094 145.867188 152.339844 146.003906 C 152.332031 146.046875 152.324219 146.089844 152.316406 146.136719 C 152.292969 146.25 152.277344 146.363281 152.257812 146.476562 C 152.25 146.53125 152.242188 146.582031 152.234375 146.636719 C 152.21875 146.746094 152.207031 146.855469 152.195312 146.964844 C 152.1875 147.019531 152.183594 147.074219 152.175781 147.128906 C 152.167969 147.242188 152.160156 147.355469 152.152344 147.472656 C 152.148438 147.519531 152.144531 147.570312 152.140625 147.617188 C 152.136719 147.78125 152.128906 147.941406 152.128906 148.105469 C 152.128906 148.109375 152.128906 148.109375 152.128906 148.109375 C 152.132812 151.523438 153.777344 154.679688 156.511719 156.640625 C 155.761719 158.105469 155.371094 159.726562 155.371094 161.394531 C 155.371094 167.246094 160.207031 171.992188 166.066406 171.914062 C 166.976562 176.050781 170.332031 179.28125 174.539062 180.015625 C 174.671875 180.039062 174.808594 180.058594 174.941406 180.078125 C 174.984375 180.085938 175.027344 180.089844 175.070312 180.09375 C 175.175781 180.109375 175.28125 180.121094 175.390625 180.128906 C 175.472656 180.140625 175.554688 180.144531 175.640625 180.148438 C 175.714844 180.15625 175.789062 180.160156 175.867188 180.164062 C 176.03125 180.171875 176.199219 180.175781 176.367188 180.175781 C 179.441406 180.175781 182.210938 178.859375 184.140625 176.757812 L 184.140625 197.664062 C 183.019531 198.648438 182.3125 200.085938 182.3125 201.6875 L 182.3125 207.617188 L 178.097656 207.617188 C 176.066406 205.078125 175.3125 201.921875 174.515625 198.59375 C 173.351562 193.726562 172.035156 188.210938 166.160156 184.589844 C 166.144531 184.582031 166.128906 184.570312 166.109375 184.558594 C 152.167969 176.765625 143.507812 162.03125 143.507812 146.109375 C 143.507812 121.816406 163.328125 102.054688 187.6875 102.054688 C 212.046875 102.054688 231.867188 121.816406 231.867188 146.109375 C 231.867188 162.03125 223.207031 176.765625 209.265625 184.558594 Z M 185.085938 201.6875 C 185.085938 200.257812 186.253906 199.09375 187.6875 199.09375 C 189.121094 199.09375 190.289062 200.257812 190.289062 201.6875 L 190.289062 207.617188 L 185.085938 207.617188 Z M 196.550781 211.996094 L 178.824219 211.996094 L 178.824219 210.382812 L 196.550781 210.382812 Z M 187.6875 99.289062 C 161.796875 99.289062 140.734375 120.292969 140.734375 146.109375 C 140.734375 163.019531 149.925781 178.667969 164.726562 186.957031 C 169.605469 189.980469 170.679688 194.476562 171.820312 199.238281 C 172.667969 202.78125 173.546875 206.4375 176.050781 209.488281 L 176.050781 212.324219 C 176.050781 213.667969 177.148438 214.761719 178.496094 214.761719 L 196.878906 214.761719 C 198.226562 214.761719 199.324219 213.667969 199.324219 212.324219 L 199.324219 209.53125 C 201.855469 206.46875 202.738281 202.796875 203.589844 199.234375 C 204.730469 194.46875 205.808594 189.964844 210.707031 186.941406 C 210.753906 186.914062 210.800781 186.882812 210.839844 186.847656 C 225.527344 178.53125 234.640625 162.945312 234.640625 146.109375 C 234.640625 120.292969 213.578125 99.289062 187.6875 99.289062 " fill-opacity="1" fill-rule="nonzero"/><g clip-path="url(#91fdc586c0)"><path fill="#000000" d="M 191.757812 225.082031 C 191.667969 225.214844 191.519531 225.292969 191.359375 225.292969 L 184.015625 225.292969 C 183.855469 225.292969 183.707031 225.214844 183.617188 225.082031 L 182.964844 224.105469 L 192.410156 224.105469 Z M 197.933594 221.339844 L 177.4375 221.339844 C 176.671875 221.339844 176.050781 221.957031 176.050781 222.722656 C 176.050781 223.484375 176.671875 224.105469 177.4375 224.105469 L 179.628906 224.105469 L 181.308594 226.617188 C 181.914062 227.519531 182.925781 228.058594 184.015625 228.058594 L 191.359375 228.058594 C 192.449219 228.058594 193.460938 227.519531 194.066406 226.617188 L 195.742188 224.105469 L 197.933594 224.105469 C 198.703125 224.105469 199.324219 223.484375 199.324219 222.722656 C 199.324219 221.957031 198.703125 221.339844 197.933594 221.339844 " fill-opacity="1" fill-rule="nonzero"/></g><path fill="#000000" d="M 197.933594 216.667969 L 177.4375 216.667969 C 176.671875 216.667969 176.050781 217.285156 176.050781 218.046875 C 176.050781 218.8125 176.671875 219.433594 177.4375 219.433594 L 197.933594 219.433594 C 198.703125 219.433594 199.324219 218.8125 199.324219 218.046875 C 199.324219 217.285156 198.703125 216.667969 197.933594 216.667969 " fill-opacity="1" fill-rule="nonzero"/><path fill="#000000" d="M 197.71875 165.207031 C 196.945312 165.207031 196.316406 164.578125 196.316406 163.808594 C 196.316406 163.035156 196.945312 162.40625 197.71875 162.40625 C 198.496094 162.40625 199.125 163.035156 199.125 163.808594 C 199.125 164.578125 198.496094 165.207031 197.71875 165.207031 Z M 199.105469 159.878906 L 199.105469 153.058594 C 199.105469 152.292969 198.484375 151.675781 197.71875 151.675781 C 196.953125 151.675781 196.332031 152.292969 196.332031 153.058594 L 196.332031 159.878906 C 194.710938 160.453125 193.539062 161.992188 193.539062 163.808594 C 193.539062 166.105469 195.414062 167.976562 197.71875 167.976562 C 200.023438 167.976562 201.898438 166.105469 201.898438 163.808594 C 201.898438 161.992188 200.730469 160.453125 199.105469 159.878906 " fill-opacity="1" fill-rule="nonzero"/><path fill="#000000" d="M 208.757812 144.941406 C 207.984375 144.941406 207.351562 144.3125 207.351562 143.539062 C 207.351562 142.765625 207.984375 142.136719 208.757812 142.136719 C 209.535156 142.136719 210.164062 142.765625 210.164062 143.539062 C 210.164062 144.3125 209.535156 144.941406 208.757812 144.941406 Z M 197.71875 124.167969 C 198.496094 124.167969 199.125 124.796875 199.125 125.570312 C 199.125 125.855469 199.039062 126.125 198.886719 126.347656 C 198.882812 126.355469 198.875 126.363281 198.871094 126.371094 C 198.613281 126.734375 198.195312 126.96875 197.71875 126.96875 C 196.945312 126.96875 196.316406 126.339844 196.316406 125.570312 C 196.316406 124.796875 196.945312 124.167969 197.71875 124.167969 Z M 208.757812 139.371094 C 208.597656 139.371094 208.4375 139.382812 208.28125 139.398438 L 201.558594 127.210938 C 201.777344 126.707031 201.898438 126.152344 201.898438 125.570312 C 201.898438 123.269531 200.023438 121.402344 197.71875 121.402344 C 195.414062 121.402344 193.539062 123.269531 193.539062 125.570312 C 193.539062 127.382812 194.710938 128.921875 196.332031 129.496094 L 196.332031 145.433594 C 196.332031 146.199219 196.953125 146.816406 197.71875 146.816406 C 198.484375 146.816406 199.105469 146.199219 199.105469 145.433594 L 199.105469 129.496094 C 199.257812 129.441406 199.410156 129.378906 199.550781 129.308594 L 205.785156 140.613281 C 205.039062 141.363281 204.578125 142.398438 204.578125 143.539062 C 204.578125 145.835938 206.453125 147.707031 208.757812 147.707031 C 211.0625 147.707031 212.9375 145.835938 212.9375 143.539062 C 212.9375 141.238281 211.0625 139.371094 208.757812 139.371094 " fill-opacity="1" fill-rule="nonzero"/><g clip-path="url(#360a881e95)"><path fill="#000000" d="M 187.6875 90.273438 C 188.453125 90.273438 189.074219 89.65625 189.074219 88.890625 L 189.074219 79.691406 C 189.074219 78.929688 188.453125 78.308594 187.6875 78.308594 C 186.921875 78.308594 186.300781 78.929688 186.300781 79.691406 L 186.300781 88.890625 C 186.300781 89.65625 186.921875 90.273438 187.6875 90.273438 " fill-opacity="1" fill-rule="nonzero"/></g><path fill="#000000" d="M 146.480469 106.484375 C 146.75 106.753906 147.105469 106.890625 147.460938 106.890625 C 147.816406 106.890625 148.171875 106.753906 148.441406 106.484375 C 148.984375 105.945312 148.984375 105.070312 148.441406 104.53125 L 141.917969 98.027344 C 141.378906 97.484375 140.5 97.484375 139.957031 98.027344 C 139.414062 98.566406 139.414062 99.441406 139.957031 99.980469 L 146.480469 106.484375 " fill-opacity="1" fill-rule="nonzero"/><g clip-path="url(#01c83b191e)"><path fill="#000000" d="M 130.796875 144.238281 L 121.574219 144.238281 C 120.808594 144.238281 120.1875 144.859375 120.1875 145.621094 C 120.1875 146.386719 120.808594 147.003906 121.574219 147.003906 L 130.796875 147.003906 C 131.5625 147.003906 132.183594 146.386719 132.183594 145.621094 C 132.183594 144.859375 131.5625 144.238281 130.796875 144.238281 " fill-opacity="1" fill-rule="nonzero"/></g><path fill="#000000" d="M 146.480469 184.757812 L 139.957031 191.265625 C 139.414062 191.804688 139.414062 192.679688 139.957031 193.21875 C 140.230469 193.488281 140.582031 193.625 140.9375 193.625 C 141.292969 193.625 141.648438 193.488281 141.917969 193.21875 L 148.441406 186.714844 C 148.984375 186.175781 148.984375 185.300781 148.441406 184.757812 C 147.898438 184.21875 147.019531 184.21875 146.480469 184.757812 " fill-opacity="1" fill-rule="nonzero"/><path fill="#000000" d="M 228.894531 184.757812 C 228.351562 184.21875 227.476562 184.21875 226.933594 184.757812 C 226.390625 185.300781 226.390625 186.175781 226.933594 186.714844 L 233.457031 193.21875 C 233.726562 193.488281 234.082031 193.625 234.4375 193.625 C 234.789062 193.625 235.144531 193.488281 235.417969 193.21875 C 235.957031 192.679688 235.957031 191.804688 235.417969 191.265625 L 228.894531 184.757812 " fill-opacity="1" fill-rule="nonzero"/><g clip-path="url(#6eb06f795c)"><path fill="#000000" d="M 253.800781 144.238281 L 244.574219 144.238281 C 243.8125 144.238281 243.191406 144.859375 243.191406 145.621094 C 243.191406 146.386719 243.8125 147.003906 244.574219 147.003906 L 253.800781 147.003906 C 254.566406 147.003906 255.1875 146.386719 255.1875 145.621094 C 255.1875 144.859375 254.566406 144.238281 253.800781 144.238281 " fill-opacity="1" fill-rule="nonzero"/></g><path fill="#000000" d="M 233.457031 98.027344 L 226.933594 104.53125 C 226.390625 105.070312 226.390625 105.945312 226.933594 106.484375 C 227.203125 106.753906 227.558594 106.890625 227.914062 106.890625 C 228.269531 106.890625 228.625 106.753906 228.894531 106.484375 L 235.417969 99.980469 C 235.957031 99.441406 235.957031 98.566406 235.417969 98.027344 C 234.875 97.484375 233.996094 97.484375 233.457031 98.027344 " fill-opacity="1" fill-rule="nonzero"/><g fill="#000000" fill-opacity="1"><g transform="translate(76.504614, 270.083398)"><g><path d="M 2.085938 -0.710938 C 4.4375 -0.0898438 7.855469 0.265625 10.296875 0.265625 C 16.640625 0.265625 21.789062 -2.085938 21.789062 -7.808594 C 21.789062 -12.957031 17.617188 -13.890625 12.824219 -15.175781 C 7.855469 -16.550781 6.257812 -17.171875 6.257812 -19.613281 C 6.257812 -22.054688 7.855469 -23.519531 12.691406 -23.519531 C 15.222656 -23.519531 18.859375 -23.164062 20.414062 -22.675781 L 20.414062 -26.402344 C 18.238281 -27.113281 15.042969 -27.378906 13.003906 -27.378906 C 6.832031 -27.378906 2.351562 -24.894531 2.351562 -19.523438 C 2.351562 -13.710938 7.589844 -12.648438 10.605469 -11.894531 C 16.996094 -10.296875 17.882812 -9.363281 17.882812 -7.589844 C 17.882812 -4.703125 15.53125 -3.550781 10.5625 -3.550781 C 7.808594 -3.550781 4.039062 -3.90625 2.085938 -4.527344 Z M 2.085938 -0.710938 "/></g></g></g><g fill="#000000" fill-opacity="1"><g transform="translate(100.332442, 270.083398)"><g><path d="M 7.410156 -19.613281 L 15.664062 -6.125 L 19.660156 -6.125 L 27.910156 -19.613281 L 27.910156 0 L 31.90625 0 L 31.90625 -27.15625 L 27.910156 -27.15625 L 17.660156 -9.941406 L 7.410156 -27.15625 L 3.417969 -27.15625 L 3.417969 0 L 7.410156 0 Z M 7.410156 -19.613281 "/></g></g></g><g fill="#000000" fill-opacity="1"><g transform="translate(135.697033, 270.083398)"><g><path d="M 20.722656 -6.699219 L 23.386719 0 L 27.691406 0 L 16.375 -27.15625 L 12.378906 -27.15625 L 1.066406 0 L 5.324219 0 L 7.988281 -6.699219 Z M 9.496094 -10.472656 L 14.378906 -22.765625 L 19.214844 -10.472656 Z M 9.496094 -10.472656 "/></g></g></g><g fill="#000000" fill-opacity="1"><g transform="translate(164.450179, 270.083398)"><g><path d="M 24.984375 0 C 22.1875 -3.152344 19.390625 -6.34375 16.640625 -9.539062 C 20.722656 -10.5625 23.875 -14.023438 23.875 -18.238281 C 23.875 -23.03125 19.746094 -27.15625 14.511719 -27.15625 L 3.417969 -27.15625 L 3.417969 0 L 7.410156 0 L 7.410156 -23.386719 L 14.511719 -23.386719 C 17.527344 -23.386719 19.878906 -21.390625 19.878906 -18.0625 C 19.878906 -14.644531 17.441406 -12.734375 14.066406 -12.734375 L 8.832031 -12.734375 L 19.878906 0 Z M 24.984375 0 "/></g></g></g><g fill="#000000" fill-opacity="1"><g transform="translate(190.496618, 270.083398)"><g><path d="M 1.375 -27.15625 L 1.375 -23.386719 L 10.25 -23.386719 L 10.25 0 L 14.246094 0 L 14.246094 -23.386719 L 23.121094 -23.386719 L 23.121094 -27.15625 Z M 1.375 -27.15625 "/></g></g></g><g fill="#000000" fill-opacity="1"><g transform="translate(214.99004, 270.083398)"><g><path d="M 22.277344 -3.773438 L 7.410156 -3.773438 L 7.410156 -27.15625 L 3.417969 -27.15625 L 3.417969 0 L 22.277344 0 Z M 22.277344 -3.773438 "/></g></g></g><g fill="#000000" fill-opacity="1"><g transform="translate(238.551634, 270.083398)"><g><path d="M 3.816406 -27.15625 L 3.816406 0 L 7.808594 0 L 7.808594 -27.15625 Z M 3.816406 -27.15625 "/></g></g></g><g fill="#000000" fill-opacity="1"><g transform="translate(250.177133, 270.083398)"><g><path d="M 2.085938 -0.710938 C 4.4375 -0.0898438 7.855469 0.265625 10.296875 0.265625 C 16.640625 0.265625 21.789062 -2.085938 21.789062 -7.808594 C 21.789062 -12.957031 17.617188 -13.890625 12.824219 -15.175781 C 7.855469 -16.550781 6.257812 -17.171875 6.257812 -19.613281 C 6.257812 -22.054688 7.855469 -23.519531 12.691406 -23.519531 C 15.222656 -23.519531 18.859375 -23.164062 20.414062 -22.675781 L 20.414062 -26.402344 C 18.238281 -27.113281 15.042969 -27.378906 13.003906 -27.378906 C 6.832031 -27.378906 2.351562 -24.894531 2.351562 -19.523438 C 2.351562 -13.710938 7.589844 -12.648438 10.605469 -11.894531 C 16.996094 -10.296875 17.882812 -9.363281 17.882812 -7.589844 C 17.882812 -4.703125 15.53125 -3.550781 10.5625 -3.550781 C 7.808594 -3.550781 4.039062 -3.90625 2.085938 -4.527344 Z M 2.085938 -0.710938 "/></g></g></g><g fill="#000000" fill-opacity="1"><g transform="translate(274.004961, 270.083398)"><g><path d="M 1.375 -27.15625 L 1.375 -23.386719 L 10.25 -23.386719 L 10.25 0 L 14.246094 0 L 14.246094 -23.386719 L 23.121094 -23.386719 L 23.121094 -27.15625 Z M 1.375 -27.15625 "/></g></g></g></svg>